<?xml version="1.0" standalone="no"?>
<!DOCTYPE svg PUBLIC "-//W3C//DTD SVG 20010904//EN"
 "http://www.w3.org/TR/2001/REC-SVG-20010904/DTD/svg10.dtd">
<svg version="1.0" xmlns="http://www.w3.org/2000/svg"
 width="1920.000000pt" height="1080.000000pt" viewBox="0 0 1920.000000 1080.000000"
 preserveAspectRatio="xMidYMid meet">

<g transform="translate(0.000000,1080.000000) scale(0.100000,-0.100000)"
fill="#000000" stroke="none">
<path d="M9245 6154 c-16 -2 -84 -11 -150 -20 -202 -27 -452 -94 -635 -172
-229 -96 -450 -226 -640 -376 -128 -101 -369 -350 -471 -487 -439 -590 -612
-1312 -488 -2040 43 -253 115 -472 239 -724 130 -265 292 -490 498 -693 417
-410 912 -659 1487 -748 96 -15 176 -19 405 -19 252 1 300 3 410 23 445 81
851 259 1195 527 481 374 823 911 959 1507 79 346 80 780 1 1142 -128 592
-461 1129 -935 1510 -353 284 -821 487 -1275 552 -104 15 -530 28 -600 18z
m494 -115 c827 -78 1605 -612 1989 -1365 513 -1007 314 -2205 -494 -2984 -396
-381 -852 -605 -1419 -696 -137 -22 -512 -25 -655 -5 -593 81 -1097 334 -1506
752 -191 196 -316 366 -434 591 -131 249 -211 490 -262 784 -19 111 -22 166
-23 394 0 282 8 365 60 585 172 736 678 1367 1360 1699 444 217 875 293 1384
245z"/>
<path d="M9295 5930 c-1030 -70 -1913 -806 -2170 -1807 -59 -227 -76 -361 -76
-608 0 -292 33 -500 122 -767 118 -357 307 -664 574 -933 189 -191 361 -320
585 -439 245 -131 485 -211 785 -261 146 -25 455 -30 620 -11 720 85 1356 472
1750 1066 195 293 313 588 375 941 28 156 38 484 21 651 -106 1010 -824 1844
-1809 2098 -234 60 -529 87 -777 70z m258 -824 c128 -144 215 -292 258 -441
11 -38 22 -76 25 -83 3 -9 21 2 57 33 252 228 624 365 988 365 l59 0 0 -32
c-1 -75 -21 -273 -36 -344 -50 -244 -180 -498 -346 -680 l-38 -41 99 -32 c179
-59 346 -159 466 -281 l59 -60 -49 -51 c-122 -125 -324 -244 -491 -292 l-81
-22 60 -70 c221 -262 346 -596 347 -929 l0 -99 -132 7 c-351 18 -670 145 -904
359 -30 27 -56 48 -58 46 -1 -2 -10 -32 -19 -66 -25 -93 -87 -228 -140 -310
-51 -77 -192 -243 -206 -243 -17 0 -152 154 -206 235 -65 97 -105 181 -135
285 -12 41 -24 81 -26 89 -3 9 -17 1 -47 -26 -254 -233 -612 -373 -952 -373
l-105 0 0 38 c1 78 19 260 35 337 47 232 179 499 327 660 28 31 49 57 47 59
-2 2 -38 13 -79 25 -168 51 -334 147 -464 271 l-78 75 76 72 c138 130 308 228
475 274 l80 22 -54 59 c-76 82 -175 236 -229 356 -80 179 -119 343 -132 565
l-6 117 53 0 c96 0 272 -20 364 -42 221 -51 412 -147 601 -301 l81 -66 22 72
c52 175 149 342 274 474 38 40 73 73 78 73 4 0 41 -38 82 -84z"/>
<path d="M9418 4909 c-95 -135 -144 -249 -173 -402 l-16 -85 54 -75 c59 -82
134 -222 163 -305 10 -28 21 -49 24 -45 4 5 19 40 33 79 31 80 112 226 163
292 40 53 42 77 14 188 -37 146 -107 291 -184 380 l-32 38 -46 -65z"/>
<path d="M8160 4803 c0 -10 7 -56 15 -103 83 -494 408 -877 880 -1038 94 -32
265 -66 307 -60 l24 3 -12 95 c-73 564 -539 1031 -1107 1109 -103 14 -107 14
-107 -6z"/>
<path d="M10640 4805 c-101 -16 -276 -73 -374 -122 -389 -194 -665 -590 -712
-1020 l-7 -63 38 0 c49 0 222 36 299 62 489 165 823 580 891 1106 l7 52 -29
-1 c-15 -1 -66 -7 -113 -14z"/>
<path d="M8468 3734 c-143 -26 -326 -109 -425 -193 l-33 -27 63 -46 c127 -93
273 -155 415 -177 78 -12 78 -12 132 29 59 46 193 120 289 159 l91 38 -83 31
c-89 34 -235 114 -305 168 -25 19 -50 34 -56 33 -6 0 -45 -7 -88 -15z"/>
<path d="M10346 3729 c-63 -50 -227 -141 -313 -175 -51 -21 -92 -38 -90 -40 1
-1 43 -18 92 -39 101 -41 203 -98 284 -158 l53 -39 76 12 c74 12 216 57 277
87 52 27 195 124 195 133 0 16 -141 111 -216 146 -78 37 -213 78 -286 87 -37
5 -51 3 -72 -14z"/>
<path d="M9225 3415 c-92 -16 -151 -35 -256 -78 -383 -159 -668 -487 -768
-885 -20 -80 -46 -241 -40 -246 11 -9 176 18 268 45 355 101 633 326 806 651
77 145 128 308 149 481 l6 47 -48 -1 c-26 0 -78 -7 -117 -14z"/>
<path d="M9555 3364 c21 -204 120 -454 244 -622 202 -273 502 -460 826 -516
136 -24 145 -23 145 18 0 64 -31 211 -65 309 -146 420 -491 736 -924 847 -44
11 -115 23 -157 27 l-77 6 8 -69z"/>
<path d="M9451 3001 c-18 -62 -94 -207 -155 -299 -65 -97 -67 -107 -31 -248
28 -111 94 -252 157 -337 l43 -59 32 39 c78 92 147 235 183 377 28 111 26 135
-14 188 -51 66 -132 212 -163 292 -14 39 -30 75 -33 79 -4 4 -12 -10 -19 -32z"/>
</g>
</svg>
